Toy Story 3 (2010) 1080p 2xAC3+2xDTS Eng+NL-DMT

Verenigde Staten
Animatie / Avontuur
103 minuten

geregisseerd door Lee Unkrich
met de stemmen van Tom Hanks, Tim Allen en Joan Cusack

Wanneer Andy gaat studeren en op kamers gaat, komen Woody, Buzz en de rest van hun
speelgoedvrienden bij dagopvang Sunnyside terecht. Dit lijkt in eerste instantie een
gezellige plek, onder leiding van de vriendelijke speelgoedbeer Lotso. 
Maar het dagverblijf blijkt helemaal niet zo prettig en dus willen Woody en
de rest zo snel mogelijk weg. Dit schijnt echter nog niet zo eenvoudig te zijn...

    http://www.moviemeter.nl/film/49471

PLOT

The toys are mistakenly delivered to a day-care center
instead of the attic right before Andy leaves for college,
and it\'s up to Woody to convince the other toys that they
weren\'t abandoned and to return home. 

    http://www.imdb.com/title/tt0435761/

INFO

Source= Multiple source
Audio 1= AC3 
Audio 2= AC3 
Audio 3= DTS 
Audio 4= DTS
Added extra Dutch subs (selectable)
Muxer= NLUPPER

PLAYER INFO

General
Complete name                    : Toy.Story.3.2010.1080p.2xAC3.2xDTS.Eng.NL-DMT.mkv
Format                           : Matroska
File size                        : 9.64 GiB
Duration                         : 1h 43mn
Overall bit rate                 : 13.4 Mbps
Encoded date                     : UTC 2010-10-25 22:08:49
Writing application              : mkvmerge v4.3.0 (\'Escape from the Island\') built on Sep  5 2010 10:30:51
Writing library                  : libebml v1.0.0 + libmatroska v1.0.0

Video
ID                               : 1
Format                           : AVC
Format/Info                      : Advanced Video Codec
Format profile                   : High@L4.1
Format settings, CABAC           : Yes
Format settings, ReFrames        : 3 frames
Format settings, GOP             : M=1, N=34
Muxing mode                      : Container profile=Unknown@4.1
Codec ID                         : V_MPEG4/ISO/AVC
Duration                         : 1h 43mn
Bit rate mode                    : Variable
Bit rate                         : 9 099 Kbps
Maximum bit rate                 : 18.0 Mbps
Width                            : 1 920 pixels
Height                           : 1 080 pixels
Display aspect ratio             : 16:9
Frame rate                       : 23.976 fps
Color space                      : YUV
Chroma subsampling               : 4:2:0
Bit depth                        : 8 bits
Scan type                        : Progressive
Bits/(Pixel*Frame)               : 0.183
Stream size                      : 6.35 GiB (66%)
Writing library                  : x264 core 104 r1683 62997d6
Encoding settings                : cabac=1 / ref=3 / deblock=1:0:0 / analyse=0x3:0x113 / 
me=umh / subme=7 / psy=1 / psy_rd=1.00:0.25 / mixed_ref=1 / me_range=16 / chroma_me=1 / 
trellis=1 / 8x8dct=1 / cqm=0 / deadzone=21,11 / fast_pskip=1 / chroma_qp_offset=-4 / 
threads=6 / sliced_threads=0 / slices=4 / nr=0 / decimate=1 / interlaced=0 / 
constrained_intra=0 / bframes=3 / b_pyramid=1 / b_adapt=1 / b_bias=0 / direct=3 / 
weightb=1 / open_gop=2 / weightp=0 / keyint=24 / keyint_min=2 / scenecut=40 / 
intra_refresh=0 / rc_lookahead=24 / rc=2pass / mbtree=1 / bitrate=9099 / ratetol=1.0 / 
qcomp=0.60 / qpmin=10 / qpmax=51 / qpstep=4 / cplxblur=20.0 / qblur=0.5 / 
vbv_maxrate=18000 / vbv_bufsize=18000 / ip_ratio=1.40 / aq=1:1.00 / nal_hrd=vbr

Audio #1
ID                               : 2
Format                           : AC-3
Format/Info                      : Audio Coding 3
Mode extension                   : CM (complete main)
Muxing mode                      : Header stripping
Codec ID                         : A_AC3
Duration                         : 1h 43mn
Bit rate mode                    : Constant
Bit rate                         : 640 Kbps
Channel(s)                       : 6 channels
Channel positions                : Front: L C R, Side: L R, LFE
Sampling rate                    : 48.0 KHz
Bit depth                        : 16 bits
Stream size                      : 472 MiB (5%)
Title                            : AC3 640
Language                         : Dutch

Audio #2
ID                               : 3
Format                           : AC-3
Format/Info                      : Audio Coding 3
Mode extension                   : CM (complete main)
Muxing mode                      : Header stripping
Codec ID                         : A_AC3
Duration                         : 1h 43mn
Bit rate mode                    : Constant
Bit rate                         : 640 Kbps
Channel(s)                       : 6 channels
Channel positions                : Front: L C R, Side: L R, LFE
Sampling rate                    : 48.0 KHz
Bit depth                        : 16 bits
Stream size                      : 472 MiB (5%)
Title                            : AC3 640
Language                         : English

Audio #3
ID                               : 4
Format                           : DTS
Format/Info                      : Digital Theater Systems
Format profile                   : ES
Muxing mode                      : Header stripping
Codec ID                         : A_DTS
Duration                         : 1h 43mn
Bit rate mode                    : Constant
Bit rate                         : 1 510 Kbps
Channel(s)                       : 6 channels
Channel positions                : Front: L C R, Side: L R, LFE
Sampling rate                    : 48.0 KHz
Bit depth                        : 24 bits
Stream size                      : 1.09 GiB (11%)
Title                            : DTS
Language                         : English

Audio #4
ID                               : 5
Format                           : DTS
Format/Info                      : Digital Theater Systems
Format profile                   : ES
Muxing mode                      : Header stripping
Codec ID                         : A_DTS
Duration                         : 1h 43mn
Bit rate mode                    : Constant
Bit rate                         : 1 510 Kbps
Channel(s)                       : 6 channels
Channel positions                : Front: L C R, Side: L R, LFE
Sampling rate                    : 48.0 KHz
Bit depth                        : 24 bits
Stream size                      : 1.09 GiB (11%)
Title                            : DTS
Language                         : Dutch

Text
ID                               : 6
Format                           : UTF-8
Codec ID                         : S_TEXT/UTF8
Codec ID/Info                    : UTF-8 Plain Text
Title                            : Nederlands
Language                         : Dutch
